# xmcd
# Copyright (C) 1995-1998 Ti Kan
#
# Track frame offsets:
#       150
#       14813
#       26071
#
# Disc length: 525 seconds
#
# Revision: 0
# Processed by: cddbd v1.5.1PL2 Copyright (c) Steve Scherf et al.
# Submitted via: CD-Transfer v1.0
#
DISCID=21020b03
DTITLE=Bergcasanovas - 
DYEAR=06
DGENRE=
TTITLE0=Halleluja
TTITLE1=Hoam Gangen Wird Wenn Die Nocht Verblüiat 
TTITLE2=Viel Viel Schöner Mit Dir
EXTD=
EXTT0=
EXTT1=
EXTT2=
PLAYORDER=
